# xmcd
#
# Track frame offsets:
#	150
#	13898
#	28330
#	42312
#	56303
#	69330
#	83122
#	93884
#	106785
#	120294
#	133422
#	147078
#	160165
#	172301
#	183240
#	196304
#	208594
#	221507
#	233404
#	245551
#
# Disc length: 3448 seconds
# Revision: 1
# Processed by: cddbd v1.5.2PL0 Copyright (c) Steve Scherf et al.
# Submitted via: dBpowerAMP V12.0
#
DISCID=130d7614
DTITLE=Various Artist - Legends of Country Blues, Disc 3
DYEAR=2003
DGENRE=Blues
TTITLE0=Bukka White and Napoleon Hairiston - The New Frisco Train
TTITLE1=Bukka White and Miss Minnie - The Panama Limited
TTITLE2=Bukka White - I Am in the Heavenly Way
TTITLE3=Bukka White - Promise True and Grand
TTITLE4=Bukka White and Unknown Guitar Player - Pine Bluff, Arkansas
TTITLE5=Bukka White and Unknown Guitar Player - Shake 'em On Down
TTITLE6=Bukka White and Unknown Guitar Player - Sic 'em Dogs On
TTITLE7=Bukka White and Unknown Guitar Player - Po' Boy
TTITLE8=Bukka White and Washboard Sam - Black Train
TTITLE9=Bukka White and Washboard Sam - Strange Place Blues
TTITLE10=Bukka White and Washboard Sam - When Can I Change My Clothes
TTITLE11=Bukka White and Washboard Sam - Sleepy Man Blues
TTITLE12=Bukka White and Washboard Sam - Parchman Farm Blues
TTITLE13=Bukka White and Washboard Sam - Good Gin Blues
TTITLE14=Bukka White and Washboard Sam - High Fever Blues
TTITLE15=Bukka White and Washboard Sam - District Attorney Blues
TTITLE16=Bukka White and Washboard Sam - Fixin' to Die Blues
TTITLE17=Bukka White and Washboard Sam - Aberdeen Mississippi Blues
TTITLE18=Bukka White and Washboard Sam - Bukka's Jitterbug Blues
TTITLE19=Bukka White and Washboard Sam - Special Stream Line
EXTD=
EXTT0=
EXTT1=
EXTT2=
EXTT3=
EXTT4=
EXTT5=
EXTT6=
EXTT7=
EXTT8=
EXTT9=
EXTT10=
EXTT11=
EXTT12=
EXTT13=
EXTT14=
EXTT15=
EXTT16=
EXTT17=
EXTT18=
EXTT19=
PLAYORDER=
